<svg xmlns="http://www.w3.org/2000/svg" width="364.186" height="29.843" viewBox="0 0 364.186 29.843">
  <g id="file" transform="translate(-1.11 -1.12)">
    <path id="Path_10" data-name="Path 10" d="M348.908,30.963H1.11V1.12H365.3V30.963H348.908m11.139-28.04a17.845,17.845,0,0,1-2.823.029c-.273-.011-.544-.032-.816-.032H3.123c0,.428,0,.76-.023,1.182a.7.7,0,0,1,0,.259c.009,3.162.018,6.324,0,9.578a.707.707,0,0,1,0,.261c.009,1.218.019,2.435,0,3.821V27.4a1.087,1.087,0,0,0,.245.087c7.444,0,14.889-.012,22.5.009q7.556,0,15.112,0c6.372,0,12.745-.015,19.289,0,1.109-.006,2.219-.012,3.5,0,4.848-.007,9.7-.014,14.716,0,1.231-.006,2.462-.012,3.859,0,7.64-.007,15.28-.014,23.092,0,1.17-.006,2.34-.012,3.677,0H362.93c0-6.082,0-12.057-.007-18.033,0-.127-.1-.253-.162-.531-.013-1.284-.024-2.568.04-3.986.056-.661.113-1.322.173-2.01C361.958,2.941,361.089,2.941,360.047,2.923Z" fill="#fff"/>
    <path id="Path_12" data-name="Path 12" d="M12.033,56.32c2.077-1,4.135-1.924,6.207-2.82a98.325,98.325,0,0,1,13.7-4.733c.916-.244,1.835-.48,2.753-.714.05-.013.114.026.227.055.012.251.035.518.035.784q0,8-.01,16a2.833,2.833,0,0,1-.31.9c-7.486.067-14.93.074-22.374.079a1.087,1.087,0,0,1-.245-.087C12.02,62.68,12.02,59.542,12.033,56.32Z" transform="translate(-8.923 -38.385)" fill="#e22119"/>
    <path id="Path_13" data-name="Path 13" d="M33.412,17.494c-2.131.718-4.275,1.4-6.389,2.162a72.71,72.71,0,0,0-12.781,6.151c-.61.367-1.208.754-1.919,1.134-.107,0-.192,0-.192,0-.009-3.162-.018-6.324.019-9.587a1.221,1.221,0,0,0,.13-.216c6.867-.008,13.734-.016,20.718.028A2.921,2.921,0,0,1,33.412,17.494Z" transform="translate(-9.007 -13.096)" fill="#e22119"/>
    <path id="Path_14" data-name="Path 14" d="M405.182,40.138c-.185-.115-.264-.28-.384-.319-2.509-.8-3.406-2.828-3.853-5.15a27.683,27.683,0,0,1-.257-2.832h1.021c.168,1.112.275,2.211.508,3.284a4.845,4.845,0,0,0,4.552,3.912c2.169.132,4.116-.557,5.035-2.839,1.058-2.625.49-5.762-2.9-6.81-1.279-.395-2.54-.845-3.811-1.267a5.12,5.12,0,0,1-3.833-5.3c.042-1.85.269-3.571,1.74-4.809a6.535,6.535,0,0,1,7.73-.219,6.441,6.441,0,0,1,1.714,2.534,20.373,20.373,0,0,1,.667,3.567h-1.016a32.62,32.62,0,0,0-.864-3.511,3.757,3.757,0,0,0-2.917-2.4,4.764,4.764,0,0,0-5.288,1.975c-1.314,2.275-.976,5.854,2.368,6.915,1.362.432,2.685.983,4.045,1.422,2.12.685,3.545,1.979,3.8,4.276s.155,4.569-1.785,6.206a14.737,14.737,0,0,1-2.466,1.3C407.73,40.135,406.5,40.142,405.182,40.138Z" transform="translate(-326.813 -12.649)" fill="#77777a"/>
    <path id="Path_15" data-name="Path 15" d="M547.554,40.363a9.341,9.341,0,0,1-3.34-2.589,12.256,12.256,0,0,1-2.155-5.532,30.18,30.18,0,0,1-.173-5.894c.266-3.052,1.134-5.91,3.56-8.088a6.492,6.492,0,0,1,7.145-.605c.247.154.207.771.3,1.173-.3-.021-.662.058-.9-.078a5.391,5.391,0,0,0-7.263,2.214,14.647,14.647,0,0,0-1.829,6.562,17.584,17.584,0,0,0,.961,7.113,6.787,6.787,0,0,0,3.667,4.222,5.07,5.07,0,0,0,5.956-1.571c2.515-3.284,2.864-7.061,2.39-11.007a12.264,12.264,0,0,0-1.845-5.542.84.84,0,0,1,.2-.788.8.8,0,0,1,.752.162,26.79,26.79,0,0,1,1.751,4.461,18.919,18.919,0,0,1-.343,9.693c-.811,2.749-2.252,5.025-5.211,6.026C549.981,40.36,548.811,40.366,547.554,40.363Z" transform="translate(-442.234 -12.873)" fill="#77777a"/>
    <path id="Path_16" data-name="Path 16" d="M305.359,42.89a5.5,5.5,0,0,1-3.514-3.3,14.215,14.215,0,0,1-.882-3.9c-.1-5.064-.041-10.131-.039-15.2,0-.146.02-.292.034-.494l1.056-.053v1.005c0,4.763-.083,9.527.05,14.286a11.31,11.31,0,0,0,1.093,4.272,4.067,4.067,0,0,0,4.33,2.274,4.472,4.472,0,0,0,4.155-3.519,13.166,13.166,0,0,0,.545-3.342c.06-4.61.025-9.221.025-13.832V20.03h1.055c.012.283.036.578.036.872,0,4.793.04,9.586-.02,14.378a10.56,10.56,0,0,1-1.085,4.762,5.034,5.034,0,0,1-3.4,2.781C307.664,42.887,306.555,42.893,305.359,42.89Z" transform="translate(-245.201 -15.4)" fill="#77777a"/>
    <path id="Path_19" data-name="Path 19" d="M12.222,17.058c.02.059-.008.1-.08.144-.04-.013-.047-.043-.044-.118C12.11,17.04,12.186,17.046,12.222,17.058Z" transform="translate(-8.987 -13.029)" fill="#e22119"/>
    <path id="Path_20" data-name="Path 20" d="M12.1,71.06c.012-.046.1-.045.14-.042.034.065.005.115-.086.167C12.1,71.168,12.092,71.137,12.1,71.06Z" transform="translate(-8.985 -57.169)" fill="#e22119"/>
    <path id="Path_21" data-name="Path 21" d="M670.941,30.61V42.334a1.119,1.119,0,0,1-1.6-.659c-1.674-3.346-3.412-6.661-5.138-9.982-1.542-2.969-3.1-5.93-4.843-8.871V42.39h-1.119v-22.4c.934-.435,1.355.1,1.725.833q2.454,4.852,4.939,9.688c1.477,2.875,2.974,5.74,4.465,8.607a.642.642,0,0,0,.423.319V19.912l1.153-.053Z" transform="translate(-537.462 -15.308)" fill="#77777a"/>
    <path id="Path_22" data-name="Path 22" d="M1617.84,38.739c-2.746-5.292-5.474-10.517-8.2-15.743l-.335.128V42.5h-1.071V20.055a1.256,1.256,0,0,1,1.69.784c2.014,4.047,4.11,8.054,6.192,12.068,1.138,2.2,2.3,4.379,3.456,6.568l.224-.044V20.024l1.08-.048V42.462c-.814.332-1.247,0-1.575-.757C1618.867,40.716,1618.34,39.77,1617.84,38.739Z" transform="translate(-1314.457 -15.422)" fill="#77777a"/>
    <path id="Path_23" data-name="Path 23" d="M1253,29.168V19.881c2.065,0,4.057,0,6.049,0a13.769,13.769,0,0,1,2.362.048,4.032,4.032,0,0,1,3.458,3.39,10.115,10.115,0,0,1,.128,4.538,5.327,5.327,0,0,1-2.537,3.553c1.916.907,2.3,2.576,2.375,4.4.071,1.719.1,3.439.2,5.156a7.529,7.529,0,0,0,.361,1.409c-.727.169-1.3.24-1.342-.75q-.126-2.838-.321-5.673a9.065,9.065,0,0,0-.322-1.745,2.921,2.921,0,0,0-3.01-2.092c-2.054-.111-4.119-.029-6.284-.029V42.417L1253,42.47v-13.3m4.462,1.639c.94,0,1.879.017,2.817,0a3.331,3.331,0,0,0,2.737-1.458,6.39,6.39,0,0,0,.867-5.481,3.1,3.1,0,0,0-2.5-2.644c-2.38-.262-4.795-.236-7.228-.332v9.92Z" transform="translate(-1023.916 -15.323)" fill="#77777a"/>
    <path id="Path_24" data-name="Path 24" d="M1413,37.128V20.238c2.437,0,4.817-.015,7.195.016a3.086,3.086,0,0,1,1.094.347,7,7,0,0,1,4,5.115A20.286,20.286,0,0,1,1425,37.581a7.161,7.161,0,0,1-4.851,4.877,6.258,6.258,0,0,1-1.572.3c-1.814.037-3.629.014-5.58.014V37.128m11.314-10.671c-.448-1.715-1.109-3.35-2.719-4.258a6.95,6.95,0,0,0-2.792-.8c-1.61-.128-3.234-.035-4.842-.035V41.5c1.348,0,2.646-.029,3.943.006a6.164,6.164,0,0,0,6.031-4.365C1425.239,33.674,1425.05,30.138,1424.314,26.456Z" transform="translate(-1154.779 -15.634)" fill="#77777a"/>
    <path id="Path_25" data-name="Path 25" d="M894.245,28.494c.824-2.87,1.64-5.666,2.456-8.463.8-.175,1.181-.065,1.445.892,1.453,5.279,3.033,10.523,4.568,15.78.509,1.743,1.019,3.485,1.516,5.231a2.03,2.03,0,0,1,.006.531c-.739.239-1.1.034-1.3-.737-.573-2.15-1.235-4.276-1.868-6.434h-7.655l-2.159,7.225h-1.17c.43-1.491.833-2.937,1.264-4.376.956-3.194,1.927-6.383,2.9-9.649m4.384-1.717-1.158-4.252-.326-.03L893.8,33.929h6.907C900,31.536,899.324,29.231,898.63,26.776Z" transform="translate(-727.088 -15.411)" fill="#77777a"/>
    <path id="Path_26" data-name="Path 26" d="M1782.934,37.841c.912-3.1,1.823-6.117,2.719-9.142.8-2.711,1.575-5.431,2.407-8.133.06-.2.5-.384.759-.388a.815.815,0,0,1,.634.431c1.732,5.974,3.431,11.956,5.143,17.936.392,1.371.81,2.734,1.233,4.15h-1.187c-.707-2.407-1.411-4.8-2.12-7.218h-7.688c-.643,2.234-1.295,4.455-1.916,6.684-.206.731-.7.571-1.348.507.464-1.631.911-3.192,1.364-4.827m7.091-11.232q-.576-1.964-1.151-3.928l-.282.025c-1.109,3.788-2.218,7.576-3.342,11.405h6.88C1791.418,31.6,1790.732,29.18,1790.025,26.609Z" transform="translate(-1456.232 -15.587)" fill="#77777a"/>
    <path id="Path_27" data-name="Path 27" d="M1518.313,22.336v8.149h9.584V31.75h-9.513V41.6h10.267v1.223H1517.27V20.376h11.2c.016.3.031.586.053.985h-10.147C1518.35,21.723,1518.332,21.986,1518.313,22.336Z" transform="translate(-1240.062 -15.75)" fill="#77777a"/>
    <path id="Path_28" data-name="Path 28" d="M1167.353,42.919h-5.042V20.414h11.172v1h-10.069v9.1h9.511v1.3h-9.533v9.822h10.285v1.3Z" transform="translate(-949.741 -15.781)" fill="#77777a"/>
    <path id="Path_29" data-name="Path 29" d="M217,30.818V20.313h10.519v1.019h-9.377v9.091H226.6v1.264h-8.485V42.794l-1.111.05Z" transform="translate(-176.576 -15.698)" fill="#77777a"/>
    <path id="Path_30" data-name="Path 30" d="M824.884,20c.352.016.617.032.9.049V21.06h-5.748V42.518h-1.109V21.128h-5.614V20Z" transform="translate(-664.301 -15.442)" fill="#77777a"/>
    <path id="Path_31" data-name="Path 31" d="M1710.015,23.73V21.369h-5.785V20.328h12.481c.015.312.029.6.049,1h-5.64V42.8h-1.105Z" transform="translate(-1392.975 -15.71)" fill="#77777a"/>
    <path id="Path_32" data-name="Path 32" d="M1083.575,41.565h5.225V42.8h-10.44V20.316h1.007V41.565Z" transform="translate(-881.079 -15.701)" fill="#77777a"/>
    <path id="Path_33" data-name="Path 33" d="M995.345,26.528V41.263h9.422v1.225H994.309V20.012l1.036-.046Z" transform="translate(-812.334 -15.414)" fill="#77777a"/>
    <path id="Path_34" data-name="Path 34" d="M1887.346,28.77V41.5h9.24v1.225H1886.31V20.258h1.036Z" transform="translate(-1541.898 -15.654)" fill="#77777a"/>
    <path id="Path_35" data-name="Path 35" d="M504,37.955v-17.6h1.043V42.824H504Z" transform="translate(-411.312 -15.733)" fill="#77777a"/>
    <path id="Path_36" data-name="Path 36" d="M127.617,17.513a1.369,1.369,0,0,1-.4-.306,9.757,9.757,0,0,1,1.106-.041l.049.143C128.143,17.374,127.915,17.439,127.617,17.513Z" transform="translate(-103.142 -13.125)" fill="#e22119"/>
  </g>
</svg>
